<mxfile host="app.diagrams.net" agent="Mozilla/5.0 (Windows NT 10.0; Win64; x64) AppleWebKit/537.36 (KHTML, like Gecko) Chrome/135.0.0.0 Safari/537.36" version="26.2.14">
  <diagram name="Page-1" id="3un9dQDjcFIrm-mvQ8FM">
    <mxGraphModel dx="1366" dy="703" grid="1" gridSize="10" guides="1" tooltips="1" connect="1" arrows="1" fold="1" page="1" pageScale="1" pageWidth="1100" pageHeight="850" math="0" shadow="0">
      <root>
        <mxCell id="0" />
        <mxCell id="1" parent="0" />
        <mxCell id="mxit5ilcq4GPeYkUO0Bo-8" style="edgeStyle=orthogonalEdgeStyle;rounded=0;orthogonalLoop=1;jettySize=auto;html=1;" parent="1" source="mxit5ilcq4GPeYkUO0Bo-1" target="mxit5ilcq4GPeYkUO0Bo-2" edge="1">
          <mxGeometry relative="1" as="geometry" />
        </mxCell>
        <mxCell id="mxit5ilcq4GPeYkUO0Bo-1" value="User" style="rounded=1;whiteSpace=wrap;html=1;" parent="1" vertex="1">
          <mxGeometry x="100" y="170" width="120" height="60" as="geometry" />
        </mxCell>
        <mxCell id="mxit5ilcq4GPeYkUO0Bo-2" value="IdentityService" style="rounded=1;whiteSpace=wrap;html=1;" parent="1" vertex="1">
          <mxGeometry x="340" y="170" width="120" height="60" as="geometry" />
        </mxCell>
        <mxCell id="mxit5ilcq4GPeYkUO0Bo-4" value="Register" style="shape=umlFrame;whiteSpace=wrap;html=1;pointerEvents=0;" parent="1" vertex="1">
          <mxGeometry x="70" y="130" width="430" height="130" as="geometry" />
        </mxCell>
        <mxCell id="LlDapOE2iplhmrxO47s_-10" style="edgeStyle=orthogonalEdgeStyle;rounded=0;orthogonalLoop=1;jettySize=auto;html=1;" edge="1" parent="1" source="mxit5ilcq4GPeYkUO0Bo-11" target="mxit5ilcq4GPeYkUO0Bo-6">
          <mxGeometry relative="1" as="geometry">
            <Array as="points">
              <mxPoint x="430" y="380" />
            </Array>
          </mxGeometry>
        </mxCell>
        <mxCell id="mxit5ilcq4GPeYkUO0Bo-5" value="User (Reactjs)" style="rounded=1;whiteSpace=wrap;html=1;" parent="1" vertex="1">
          <mxGeometry x="110" y="480" width="120" height="60" as="geometry" />
        </mxCell>
        <mxCell id="mxit5ilcq4GPeYkUO0Bo-6" value="IdentityService" style="rounded=1;whiteSpace=wrap;html=1;" parent="1" vertex="1">
          <mxGeometry x="110" y="350" width="120" height="60" as="geometry" />
        </mxCell>
        <mxCell id="mxit5ilcq4GPeYkUO0Bo-7" value="Admin login" style="shape=umlFrame;whiteSpace=wrap;html=1;pointerEvents=0;width=220;height=30;" parent="1" vertex="1">
          <mxGeometry x="70" y="310" width="460" height="290" as="geometry" />
        </mxCell>
        <mxCell id="mxit5ilcq4GPeYkUO0Bo-11" value="Backend API" style="rounded=1;whiteSpace=wrap;html=1;" parent="1" vertex="1">
          <mxGeometry x="370" y="480" width="120" height="60" as="geometry" />
        </mxCell>
        <mxCell id="LlDapOE2iplhmrxO47s_-4" value="" style="endArrow=classic;html=1;rounded=0;" edge="1" parent="1">
          <mxGeometry width="50" height="50" relative="1" as="geometry">
            <mxPoint x="159.8" y="480" as="sourcePoint" />
            <mxPoint x="159.8" y="410" as="targetPoint" />
          </mxGeometry>
        </mxCell>
        <mxCell id="LlDapOE2iplhmrxO47s_-5" value="login form" style="text;html=1;align=center;verticalAlign=middle;resizable=0;points=[];autosize=1;strokeColor=none;fillColor=none;" vertex="1" parent="1">
          <mxGeometry x="90" y="425" width="80" height="30" as="geometry" />
        </mxCell>
        <mxCell id="LlDapOE2iplhmrxO47s_-7" value="" style="endArrow=classic;html=1;rounded=0;" edge="1" parent="1">
          <mxGeometry width="50" height="50" relative="1" as="geometry">
            <mxPoint x="180" y="410" as="sourcePoint" />
            <mxPoint x="180" y="480" as="targetPoint" />
          </mxGeometry>
        </mxCell>
        <mxCell id="LlDapOE2iplhmrxO47s_-9" value="code" style="text;html=1;align=center;verticalAlign=middle;resizable=0;points=[];autosize=1;strokeColor=none;fillColor=none;" vertex="1" parent="1">
          <mxGeometry x="180" y="425" width="50" height="30" as="geometry" />
        </mxCell>
        <mxCell id="LlDapOE2iplhmrxO47s_-11" value="" style="endArrow=classic;html=1;rounded=0;" edge="1" parent="1">
          <mxGeometry width="50" height="50" relative="1" as="geometry">
            <mxPoint x="370" y="500" as="sourcePoint" />
            <mxPoint x="230" y="500" as="targetPoint" />
          </mxGeometry>
        </mxCell>
        <mxCell id="LlDapOE2iplhmrxO47s_-12" value="code" style="text;html=1;align=center;verticalAlign=middle;resizable=0;points=[];autosize=1;strokeColor=none;fillColor=none;" vertex="1" parent="1">
          <mxGeometry x="270" y="510" width="50" height="30" as="geometry" />
        </mxCell>
        <mxCell id="LlDapOE2iplhmrxO47s_-13" value="token" style="text;html=1;align=center;verticalAlign=middle;resizable=0;points=[];autosize=1;strokeColor=none;fillColor=none;" vertex="1" parent="1">
          <mxGeometry x="270" y="470" width="50" height="30" as="geometry" />
        </mxCell>
        <mxCell id="LlDapOE2iplhmrxO47s_-14" style="edgeStyle=orthogonalEdgeStyle;rounded=0;orthogonalLoop=1;jettySize=auto;html=1;" edge="1" parent="1" source="mxit5ilcq4GPeYkUO0Bo-6">
          <mxGeometry relative="1" as="geometry">
            <mxPoint x="220" y="390" as="sourcePoint" />
            <mxPoint x="420" y="480" as="targetPoint" />
            <Array as="points">
              <mxPoint x="420" y="390" />
            </Array>
          </mxGeometry>
        </mxCell>
        <mxCell id="LlDapOE2iplhmrxO47s_-15" value="" style="endArrow=classic;html=1;rounded=0;" edge="1" parent="1" source="mxit5ilcq4GPeYkUO0Bo-5" target="mxit5ilcq4GPeYkUO0Bo-11">
          <mxGeometry width="50" height="50" relative="1" as="geometry">
            <mxPoint x="380" y="510" as="sourcePoint" />
            <mxPoint x="240" y="510" as="targetPoint" />
          </mxGeometry>
        </mxCell>
        <mxCell id="LlDapOE2iplhmrxO47s_-16" value="code" style="text;html=1;align=center;verticalAlign=middle;resizable=0;points=[];autosize=1;strokeColor=none;fillColor=none;" vertex="1" parent="1">
          <mxGeometry x="420" y="360" width="50" height="30" as="geometry" />
        </mxCell>
        <mxCell id="LlDapOE2iplhmrxO47s_-17" value="token" style="text;html=1;align=center;verticalAlign=middle;resizable=0;points=[];autosize=1;strokeColor=none;fillColor=none;" vertex="1" parent="1">
          <mxGeometry x="375" y="390" width="50" height="30" as="geometry" />
        </mxCell>
      </root>
    </mxGraphModel>
  </diagram>
</mxfile>
